# xmcd
#
# Track frame offsets:
# 150
# 22673
# 45685
#
# Disc length: 847 seconds
#
#
# Revision: 0
# Processed by: cddbd v1.5.1PL0 Copyright (c) Steve Scherf et al.
# Submitted via: FreeRIP 2.941 
#
DISCID=16034d03
DTITLE=LNS - Blues Promo and Press Kit
DYEAR=1900
DGENRE=Blues
TTITLE0=Mustang Sally
TTITLE1=I'm Tore Down
TTITLE2=Messin' with the Kid
EXTD=L aider\nN ewman\nS chnarr\n\nRare promo Release
EXTT0=
EXTT1=
EXTT2=
PLAYORDER=
